<svg width="1024" height="1024" viewBox="0 0 1024 1024" fill="none" xmlns="http://www.w3.org/2000/svg">
<rect width="1024" height="1024" fill="#F8F8F8"/>
<path d="M348.824 696.56C344.387 696.56 340.803 695.877 338.072 694.512C335.341 693.488 333.976 691.952 333.976 689.904C333.976 687.515 335.341 685.467 338.072 683.76C341.144 681.712 345.411 679.835 350.872 678.128C359.747 675.397 367.939 671.301 375.448 665.84C382.957 660.379 389.443 651.333 394.904 638.704C404.461 616.859 413.165 596.379 421.016 577.264C429.208 558.149 436.888 539.376 444.056 520.944C451.224 502.512 458.563 483.397 466.072 463.6C473.923 443.461 482.115 421.616 490.648 398.064C492.355 393.285 493.891 388.507 495.256 383.728C496.621 378.949 497.475 373.829 497.816 368.368C500.888 367.344 503.96 366.32 507.032 365.296C510.104 364.272 513.176 362.736 516.248 360.688C519.32 358.64 521.368 355.568 522.392 351.472C523.757 347.376 524.952 344.645 525.976 343.28C526.317 342.939 526.659 342.768 527 342.768C527.683 342.768 528.195 343.109 528.536 343.792C529.219 345.157 529.731 346.864 530.072 348.912C530.755 350.96 531.437 353.008 532.12 355.056C540.312 380.997 548.845 407.451 557.72 434.416C566.595 461.381 575.128 487.493 583.32 512.752C591.853 537.669 599.533 560.197 606.36 580.336C613.528 600.133 619.16 616.176 623.256 628.464C628.035 642.117 633.155 652.357 638.616 659.184C644.077 666.011 649.709 670.789 655.512 673.52C661.656 676.251 668.141 678.299 674.968 679.664C680.771 680.688 685.037 682.395 687.768 684.784C690.499 686.832 691.864 689.051 691.864 691.44C691.864 693.488 690.499 694.853 687.768 695.536C685.037 696.219 681.453 696.56 677.016 696.56C672.237 696.56 665.752 696.219 657.56 695.536C649.368 695.195 640.664 694.683 631.448 694C622.232 693.659 613.699 693.488 605.848 693.488C599.363 693.488 592.707 693.488 585.88 693.488C579.053 693.488 572.739 693.659 566.936 694C561.133 694 556.184 694 552.088 694C547.651 694 544.067 693.488 541.336 692.464C538.605 691.44 537.24 689.904 537.24 687.856C537.24 685.467 538.947 683.419 542.36 681.712C545.773 680.005 549.699 678.811 554.136 678.128C565.4 676.421 573.421 673.52 578.2 669.424C582.979 665.328 585.368 660.549 585.368 655.088C585.368 649.968 584.173 642.629 581.784 633.072C579.736 623.173 577.176 612.763 574.104 601.84C571.032 590.576 568.131 580.677 565.4 572.144C564.717 569.413 563.352 567.877 561.304 567.536C559.597 566.853 556.355 566.512 551.576 566.512H454.808C453.443 566.512 451.907 567.195 450.2 568.56C448.835 569.584 447.469 571.973 446.104 575.728C445.08 579.141 443.373 584.603 440.984 592.112C438.595 599.28 436.205 606.96 433.816 615.152C431.427 623.344 429.379 630.683 427.672 637.168C425.965 643.653 425.112 647.749 425.112 649.456C425.112 656.965 428.013 663.28 433.816 668.4C439.619 673.179 446.616 676.592 454.808 678.64C466.072 681.712 471.704 685.125 471.704 688.88C471.704 690.928 470.339 692.464 467.608 693.488C464.877 694.171 461.293 694.512 456.856 694.512C452.419 694.512 445.933 694.341 437.4 694C428.867 693.659 419.821 693.488 410.264 693.488C399 693.488 388.077 694 377.496 695.024C366.915 696.048 357.357 696.56 348.824 696.56ZM468.632 549.616H547.992C552.771 549.616 555.16 548.763 555.16 547.056C555.16 546.373 554.989 545.691 554.648 545.008C554.648 543.984 554.477 542.96 554.136 541.936L514.2 417.008C512.152 410.864 510.616 407.792 509.592 407.792C508.909 407.792 507.544 410.693 505.496 416.496L458.904 541.936C458.221 543.984 457.88 545.349 457.88 546.032C457.88 547.739 458.733 548.763 460.44 549.104C462.488 549.445 465.219 549.616 468.632 549.616Z" fill="black"/>
</svg>
